Coordinates
version=1
nRows=21
nColumns=36
inDegrees=no

Units are S.I. units (second, meters, Newtons, ...)
If the header above contains a line with 'inDegrees', this indicates whether rotational values are in degrees (yes) or radians (no).

endheader
time	pelvis_tilt	pelvis_list	pelvis_rotation	pelvis_tx	pelvis_ty	pelvis_tz	hip_flexion_r	hip_adduction_r	hip_rotation_r	knee_angle_r	knee_adduction_r	ankle_angle_r	subtalar_angle_r	mtp_angle_r	hip_flexion_l	hip_adduction_l	hip_rotation_l	knee_angle_l	knee_adduction_l	ankle_angle_l	subtalar_angle_l	mtp_angle_l	lumbar_extension	lumbar_bending	lumbar_rotation	arm_flex_r	arm_add_r	arm_rot_r	elbow_flex_r	pro_sup_r	arm_flex_l	arm_add_l	arm_rot_l	elbow_flex_l	pro_sup_l
0.135	-0.151043	-0.030205	0.00273339	-0.202077	0.922863	-1.20727	0.246073	-0.100978	-0.205818	0.248827	0.0616441	0.224647	0.393179	-0.114958	0.191391	-0.210577	-0.254602	0.139441	0.122304	0.199757	0.367503	-0.114958	0.0574293	0.000286761	-0.00345316	1.24254	-0.212474	0.248992	0.920637	0.46637	1.35139	-0.16631	0.767811	0.65843	2.09
0.14	-0.15296	-0.0298043	0.00176529	-0.202424	0.922762	-1.20714	0.249935	-0.101315	-0.204574	0.251099	0.0615946	0.22438	0.393321	-0.114958	0.193997	-0.210431	-0.256489	0.140202	0.121887	0.199112	0.368878	-0.114958	0.0582512	-6.37364e-05	-0.00310483	1.25031	-0.204135	0.241592	0.90127	0.479988	1.36008	-0.160583	0.767962	0.646641	2.09
0.145	-0.155301	-0.029431	0.000878352	-0.202796	0.922614	-1.20698	0.254476	-0.10156	-0.203535	0.253777	0.0613584	0.224288	0.393681	-0.114958	0.197233	-0.210442	-0.258395	0.141229	0.121496	0.198531	0.37066	-0.114958	0.0594649	-0.000725125	-0.00252289	1.2573	-0.196603	0.233471	0.883765	0.492423	1.36889	-0.154722	0.769073	0.634862	2.09
0.15	-0.157934	-0.0290359	4.45621e-05	-0.203195	0.922428	-1.20681	0.259501	-0.101825	-0.202526	0.256737	0.0610844	0.224206	0.393979	-0.114958	0.200891	-0.21047	-0.260117	0.142356	0.121131	0.197873	0.372305	-0.114958	0.0608255	-0.00151248	-0.00155731	1.2639	-0.189581	0.224461	0.867989	0.504637	1.37754	-0.148666	0.770172	0.623813	2.09
0.155	-0.160742	-0.028724	-0.000742505	-0.203621	0.922223	-1.20663	0.264822	-0.102031	-0.201392	0.259847	0.0608845	0.224079	0.393998	-0.114958	0.204849	-0.21059	-0.26147	0.143561	0.120788	0.197237	0.373599	-0.114958	0.0620717	-0.00211563	-0.000342206	1.27036	-0.182717	0.214193	0.854041	0.515603	1.38593	-0.142815	0.771214	0.614478	2.09
0.16	-0.163834	-0.0282707	-0.00158269	-0.204066	0.921998	-1.20645	0.270613	-0.102438	-0.199819	0.263228	0.0609012	0.22394	0.393519	-0.114958	0.209199	-0.210563	-0.262635	0.144865	0.120392	0.196461	0.374648	-0.114958	0.0634667	-0.00301138	0.000675303	1.27612	-0.176426	0.203761	0.84239	0.52233	1.39413	-0.137738	0.772759	0.606685	2.09
0.165	-0.166851	-0.0277115	-0.00246287	-0.204496	0.921783	-1.20631	0.276339	-0.103126	-0.19781	0.266659	0.0612847	0.223688	0.392492	-0.114958	0.213439	-0.210332	-0.263328	0.146095	0.120002	0.195564	0.374975	-0.114958	0.0647702	-0.00383563	0.00148409	1.28155	-0.17132	0.196168	0.832617	0.524631	1.40192	-0.133509	0.774966	0.600454	2.09
0.17	-0.169317	-0.0273773	-0.00326175	-0.204873	0.921634	-1.20624	0.281174	-0.103708	-0.195615	0.269659	0.0619514	0.223096	0.391008	-0.114958	0.216872	-0.210145	-0.263348	0.146918	0.119688	0.194715	0.37417	-0.114958	0.0654147	-0.00423621	0.0022852	1.28682	-0.167462	0.191023	0.824152	0.524814	1.40931	-0.129868	0.777798	0.595922	2.09
0.175	-0.173101	-0.0265619	-0.00412954	-0.20532	0.921338	-1.20609	0.28836	-0.104664	-0.200052	0.274569	0.0598872	0.22475	0.400269	-0.114958	0.222429	-0.209645	-0.269527	0.149708	0.11797	0.195797	0.382837	-0.114958	0.067457	-0.00522354	0.00284882	1.29162	-0.163166	0.18514	0.817151	0.52559	1.41592	-0.126533	0.777525	0.592203	2.09
0.18	-0.175942	-0.0256937	-0.00489201	-0.205767	0.921106	-1.20589	0.294085	-0.105492	-0.199568	0.278361	0.0594302	0.225191	0.401542	-0.114958	0.226553	-0.209101	-0.270831	0.151115	0.117412	0.195311	0.384124	-0.114958	0.0681996	-0.00661092	0.00373608	1.2963	-0.160101	0.18084	0.812144	0.525579	1.42353	-0.123269	0.780849	0.589062	2.09
0.185	-0.179043	-0.0246813	-0.00558786	-0.206242	0.920861	-1.2057	0.300214	-0.10652	-0.199134	0.282341	0.0590123	0.225607	0.40279	-0.114958	0.231115	-0.20838	-0.271961	0.152706	0.116781	0.194336	0.385585	-0.114958	0.0691161	-0.00842002	0.00493468	1.30045	-0.1584	0.178273	0.808963	0.524736	1.43114	-0.119522	0.784385	0.585885	2.09
0.19	-0.182353	-0.0236367	-0.00627489	-0.206728	0.920618	-1.20554	0.306665	-0.107931	-0.19863	0.286586	0.0591498	0.226012	0.404081	-0.114958	0.235969	-0.207464	-0.272946	0.154405	0.116072	0.193246	0.386687	-0.114958	0.0701281	-0.0099984	0.00605823	1.30462	-0.157089	0.177248	0.80655	0.523233	1.43842	-0.116278	0.787997	0.583683	2.09
0.195	-0.185833	-0.0223684	-0.00698493	-0.207226	0.920372	-1.20542	0.313414	-0.109725	-0.198247	0.291019	0.0593796	0.226461	0.405682	-0.114958	0.241044	-0.206101	-0.273308	0.155986	0.115192	0.192829	0.386311	-0.114958	0.0712074	-0.011592	0.007095	1.30888	-0.156109	0.177798	0.804724	0.521278	1.44541	-0.113719	0.792365	0.582995	2.09
0.2	-0.189345	-0.0209281	-0.00766889	-0.207733	0.920146	-1.20531	0.320253	-0.111691	-0.197965	0.295524	0.0595068	0.22689	0.407518	-0.114958	0.246194	-0.204488	-0.27328	0.157455	0.114191	0.19274	0.385323	-0.114958	0.0722261	-0.0133558	0.00823016	1.31297	-0.155542	0.179298	0.803755	0.519145	1.45236	-0.111373	0.797388	0.582485	2.09
0.205	-0.193075	-0.0194947	-0.00841314	-0.208258	0.919906	-1.20518	0.327442	-0.113491	-0.197609	0.300127	0.0594159	0.227159	0.409294	-0.114958	0.251668	-0.202951	-0.273634	0.159203	0.113226	0.19272	0.384914	-0.114958	0.0734296	-0.0150815	0.00952385	1.3168	-0.155205	0.181465	0.803682	0.516863	1.45933	-0.109235	0.803409	0.581963	2.09
0.21	-0.196574	-0.0182485	-0.00919981	-0.208794	0.919683	-1.20502	0.334242	-0.114841	-0.196921	0.304313	0.0591532	0.22713	0.410462	-0.114958	0.256896	-0.201739	-0.27408	0.161014	0.112372	0.192439	0.384887	-0.114958	0.0742413	-0.0165149	0.0107815	1.32072	-0.154984	0.184434	0.804079	0.514754	1.46621	-0.107516	0.809243	0.582269	2.09
0.215	-0.199985	-0.0171014	-0.0100085	-0.209351	0.919471	-1.20485	0.340932	-0.115959	-0.195997	0.308343	0.0587359	0.227281	0.410971	-0.114958	0.262098	-0.200712	-0.274468	0.162924	0.111574	0.192002	0.385022	-0.114958	0.0748364	-0.0177577	0.0119115	1.32487	-0.15496	0.188557	0.804519	0.512464	1.47291	-0.106017	0.814354	0.583071	2.09
0.22	-0.203675	-0.0157792	-0.010791	-0.209912	0.919237	-1.20469	0.348114	-0.11743	-0.194923	0.312792	0.0586246	0.22749	0.411385	-0.114958	0.267703	-0.199517	-0.275033	0.165086	0.110729	0.191316	0.385475	-0.114958	0.0757254	-0.0192736	0.0129343	1.32903	-0.155426	0.194502	0.805118	0.509769	1.4795	-0.104619	0.819136	0.583703	2.09
0.225	-0.207252	-0.0144461	-0.011233	-0.210469	0.919006	-1.2046	0.355103	-0.119226	-0.19391	0.317292	0.0588866	0.227646	0.41161	-0.114958	0.273337	-0.198133	-0.275407	0.167509	0.109931	0.1905	0.385718	-0.114958	0.0764861	-0.0207095	0.0136759	1.33323	-0.156246	0.201396	0.805888	0.507398	1.48572	-0.10356	0.825166	0.583966	2.09
0.23	-0.211076	-0.0129014	-0.0111737	-0.211098	0.918742	-1.20462	0.362479	-0.121647	-0.192859	0.322079	0.0595353	0.22782	0.411312	-0.114958	0.279718	-0.196209	-0.274765	0.170271	0.108889	0.19008	0.38524	-0.114958	0.077313	-0.0221394	0.0138727	1.33783	-0.157033	0.209271	0.806463	0.505661	1.49235	-0.102821	0.833451	0.584596	2.09
0.235	-0.21445	-0.0116225	-0.0114079	-0.211765	0.918511	-1.20459	0.369329	-0.123461	-0.191409	0.326498	0.0599914	0.227641	0.410601	-0.114958	0.285584	-0.194866	-0.273842	0.172987	0.108179	0.189818	0.384297	-0.114958	0.0773875	-0.0232883	0.0142559	1.34264	-0.157535	0.216111	0.807149	0.504932	1.49925	-0.102076	0.841244	0.585421	2.09
